<?xml version="1.0" encoding="utf-8"?>
<!-- Generator: Adobe Illustrator 14.0.0, SVG Export Plug-In . SVG Version: 6.00 Build 43363)  -->
<!DOCTYPE svg PUBLIC "-//W3C//DTD SVG 1.1//EN" "http://www.w3.org/Graphics/SVG/1.1/DTD/svg11.dtd">
<svg version="1.1" id="Layer_6" xmlns="http://www.w3.org/2000/svg" xmlns:xlink="http://www.w3.org/1999/xlink" x="0px" y="0px"
	 width="257.334px" height="377.699px" viewBox="0 0 257.334 377.699" enable-background="new 0 0 257.334 377.699"
	 xml:space="preserve">
<path fill="#31B2FE" d="M252.334,358.033c0,8.284-6.716,15-15,15H20.001c-8.284,0-15-6.716-15-15V19.842c0-8.284,6.716-15,15-15
	h217.333c8.284,0,15,6.716,15,15V358.033z"/>
<circle fill="#FFFFFF" cx="133.246" cy="105.278" r="82.578"/>
<path fill="none" stroke="#996600" stroke-width="6" d="M198.918,238.885c-3-3-8.5-2-10.5-5c-1.331-1.996-3.768-5.773-5.839-11.166
	c-1.041-2.711-1.992-5.822-2.661-9.334c-2-10.5-7-29-9-34.5c-0.342-0.941-0.649-1.851-0.928-2.754
	c0.898-1.172,0.012-3.194,0.39-2.802c0.441,0.458,0.589,1.488,1.047,0s-0.687-3.319-1.047-5.38s0.589-1.259,1.505,0.343
	s0.687,2.404,1.488,0s-0.802-4.808-1.488-8.242s0-2.175,0.687-1.145s0.52,2.631,0.916,2.518c1.015-0.289,1.469-3.174-0.152-6.289
	c-1.642-3.155-1.832-5.196-0.865-4.951c0.64,0.162,1.534,5.094,1.948,0.534c0.156-1.716-0.517-3.56-1.273-4.875
	c0.617-0.672,0.248-1.619-0.039-3.771c-0.297-2.23-0.364-3.981-1.695-4.022c0.419-1.25,0.609-2.601-0.075-4.999
	c-0.802-2.678-1.813-4.96-2.417-6.167c-2.5-5,5,1.5,9-1s5-6-1-7.5s-18-11.5-14-11s15.5,4.464,21,2.982
	c2.703-0.729,5.16-3.516,6.846-6.517c2.624-0.804,4.529-3.223,4.529-6.081c0-3.516-2.882-6.366-6.438-6.366
	c-0.003,0-0.006,0-0.008,0c-1.395-0.669-3.283-1.313-5.93-2.019c-5.07-1.352-6.023-1.793-6.111-3.172
	c-0.043-0.66,0.111-1.532,0.111-2.828c0-4,0-7.881-2.123-11.943c-1.154-2.208-3.623-4.061-5.377-5.057c0-3,6.115-16.237,0.5-16.5
	c-3.531-0.165-12.862,4.448-15.5,11c-0.9,2.235-6.547,2.275-6.5,1c0.148-4.012,2.759-11.35,0.906-13.012
	c-2.831-2.541-9.67-0.018-13.17,3.982s-10.236,15.529-15.736,18.529s-17,26.5-19,36c-0.47,2.233-2.991,11.467-3.947,15.525
	c-0.059-0.046-0.11-0.083-0.139-0.092c-1.093-0.382-2.334,1.666-3.717,4.969c-0.682,1.625-1.474,3.863-1.48,4.608
	c-0.001,0.077,0.07,0.198,0.194,0.35c-1.319,1.096-2.679,3.246-3.411,4.14c-4.5,5.5-10.5,6-16.5,17
	c-4.079,7.479-9.083,15.882-13.598,22.066c-2.125,2.912-4.142,5.333-5.902,6.934c-5.5,5-10.376,2.294-8.376,0.294
	s21.876-11.794,18.876-20.794s-12.5-8-21,0.5s-5.506,19.661-10.5,15.5c-3-2.5-4-3-3,0.5s3,9.973,2,6.736s-0.75-3.236-2.375-1.236
	s1.875,6,2.375,9s1.5,3.5,0.5,10.5s-1,14.5-0.5,20s-0.604,2.5-2.803,14.5c-2.197,12,0.198,17.5,0,26
	c-0.149,6.443,0.117,8.295,0.14,12.297c0.007,1.277-0.009,2.768-0.073,4.703c-0.264,8-4.764,14-6.764,20s-4.5,8-3.5,14s6,8,10.5,7
	s6.5-3,8-6.5s2-1.5,2-8.5s3.5-22.5,6.5-29.5s10.772-8,14.137-13.5c3.363-5.5,5.863-7,6.863-2.5s3.5,7,1,11.5s-5,8-4.5,12.5
	s2.5,16.5,7.5,20s14.5,5,17.5,3s6.5-11,2.5-12.5s-9-2-10-5.5s-1.5-2.5,0.5-8.5s7.5-1.5,11-10s3-18.5,3.5-26.5s-3.5-11,2-13
	s12.94-3.57,16.914-8.078c1.429-1.619,2.859-2.293,4.137-2.385c1.176,1.281,2.996,2.412,4.724,5.309
	c0.849,2.76,3.583,8.168,6.527,13.131c2.186,3.684,4.482,7.117,6.198,9.023c4.5,5,8.5,6,11.5,6.5s11.769,0.395,14.542-0.506
	c5.8-1.883,11.458-10.494,5.458-14.994s-9.5-4.5-13.5-3.5s-7,4-10-2c-1.148-2.295-2.221-5.398-2.998-8.801
	c-1.254-5.49-1.736-11.76-0.502-16.699c0,0,0,0,0-0.002c2.001-7.998,6.5-5.998,7-10.998c0.426-4.26,3.752-5.596,6.274-1.576
	c0.438,0.698,0.855,1.539,1.226,2.576c2.5,7,15,34,19,40c0.829,1.244,1.569,2.307,2.262,3.229c2.65,3.527,4.567,4.875,7.738,5.271
	c4,0.5,14,2,16-1S201.918,241.885,198.918,238.885z M105.701,194.291c-0.042,0.006-0.086,0.014-0.128,0.021
	c0.04-0.006,0.088-0.019,0.128-0.024C105.701,194.289,105.701,194.29,105.701,194.291z M39.086,266.9
	c-0.15,0.176-0.271,0.25-0.349,0.162C38.459,266.746,38.948,266.877,39.086,266.9c0.004-0.004,0.009-0.01,0.013-0.016
	C39.13,266.904,39.124,266.906,39.086,266.9z M96.559,197.197c1.102-0.474,2.194-0.91,3.248-1.293
	C98.752,196.289,97.662,196.723,96.559,197.197z M159.796,185.379c0.65-0.542,1.668-1.354,2.869-2.364
	C161.465,184.023,160.446,184.838,159.796,185.379z M162.673,183.009c0.193-0.163,0.392-0.331,0.594-0.503
	C163.065,182.678,162.867,182.846,162.673,183.009z M163.296,182.48c0.195-0.167,0.395-0.338,0.597-0.514
	C163.691,182.142,163.492,182.313,163.296,182.48z M163.953,181.916c0.195-0.17,0.395-0.345,0.595-0.523
	C164.346,181.57,164.148,181.745,163.953,181.916z M164.626,181.322c0.198-0.176,0.399-0.356,0.601-0.539
	C165.025,180.966,164.826,181.146,164.626,181.322z M165.313,180.705c0.201-0.183,0.403-0.369,0.605-0.558
	C165.715,180.336,165.514,180.522,165.313,180.705z M166.01,180.062c0.2-0.188,0.4-0.377,0.602-0.57
	C166.411,179.685,166.21,179.875,166.01,180.062z M166.717,179.39c0.199-0.192,0.399-0.387,0.598-0.584
	C167.117,179.003,166.917,179.198,166.717,179.39z M167.411,178.711c0.202-0.202,0.403-0.405,0.604-0.611
	C167.814,178.306,167.613,178.509,167.411,178.711z M169.374,176.642c-0.198,0.223-0.399,0.442-0.603,0.661
	C168.974,177.084,169.175,176.864,169.374,176.642z M168.701,177.38c-0.2,0.214-0.402,0.426-0.605,0.636
	C168.298,177.806,168.5,177.594,168.701,177.38z"/>
<g>
	<path fill="#CCCCCC" d="M20.001,376.713c-10.3,0-18.68-8.38-18.68-18.68V19.842c0-10.3,8.379-18.68,18.68-18.68h217.333
		c10.3,0,18.68,8.379,18.68,18.68v338.191c0,10.3-8.38,18.68-18.68,18.68H20.001z M20.001,8.521c-6.242,0-11.32,5.078-11.32,11.32
		v338.191c0,6.242,5.078,11.32,11.32,11.32h217.333c6.242,0,11.32-5.078,11.32-11.32V19.842c0-6.242-5.078-11.32-11.32-11.32H20.001
		z"/>
	<path d="M237.334,2.342c9.649,0,17.5,7.851,17.5,17.5v338.191c0,9.649-7.851,17.5-17.5,17.5H20.001c-9.649,0-17.5-7.851-17.5-17.5
		V19.842c0-9.649,7.851-17.5,17.5-17.5H237.334 M20.001,370.533h217.333c6.893,0,12.5-5.607,12.5-12.5V19.842
		c0-6.893-5.607-12.5-12.5-12.5H20.001c-6.893,0-12.5,5.607-12.5,12.5v338.191C7.501,364.926,13.108,370.533,20.001,370.533
		 M237.334-0.018H20.001c-10.951,0-19.86,8.909-19.86,19.86v338.191c0,10.951,8.909,19.859,19.86,19.859h217.333
		c10.951,0,19.859-8.908,19.859-19.859V19.842C257.194,8.891,248.286-0.018,237.334-0.018L237.334-0.018z M20.001,368.174
		c-5.591,0-10.14-4.549-10.14-10.141V19.842c0-5.591,4.549-10.14,10.14-10.14h217.333c5.592,0,10.141,4.549,10.141,10.14v338.191
		c0,5.592-4.549,10.141-10.141,10.141H20.001L20.001,368.174z"/>
</g>
<path fill="#E06D00" d="M167.906,65.638c-2.384-1.013-4.555-2.954-7.878-2.954c1.03-3.734,6.277-9.847,9.724-10.462
	C173.221,51.602,170.105,60.44,167.906,65.638z"/>
<path fill="#FFFFFF" d="M114.245,219.312c0.369,2.188-0.896,1.614-2.265-0.713s0.248-5.833,0.248-7.839s-1.78-3.607-2.875-0.896
	s-2.601-1.206-3.286-5.449c-0.491-3.044-0.278-7.28-0.118-10.143c-0.042,0.006-0.086,0.014-0.128,0.021
	c-0.355,0.053-0.733,0.125-1.128,0.21c-0.103,0.022-0.203,0.043-0.308,0.068c-0.464,0.107-0.946,0.229-1.452,0.374
	c-0.029,0.008-0.058,0.017-0.087,0.025c-0.358,0.104-0.724,0.214-1.098,0.335c-0.029,0.01-0.059,0.02-0.088,0.029
	c-0.499,0.162-1.01,0.337-1.532,0.526c-0.024,0.009-0.048,0.017-0.072,0.026c-1.055,0.384-2.146,0.818-3.248,1.292
	c-0.133,0.057-0.267,0.116-0.4,0.174c-0.409,0.179-0.819,0.363-1.229,0.552c-0.145,0.066-0.289,0.132-0.434,0.2
	c-0.529,0.248-1.057,0.501-1.579,0.762c-7,3.5-22,20-29,21c-5.477,0.782-11.565-0.576-14.674,5.738
	c0.312,1.06,0.768,2.683,1.407,5.134c1.489,5.709,0.993,6.934,0,5.204s-2.73-3.026-1.986,0.725s2.249,7.971,1.373,10.701
	s-0.493-1.351-1.553-1.668s-0.068,0.927-1.061,6.262s-0.546,4.131-1.985,2.779s-0.496,0.014-2.234,3.643
	c-1.463,3.055-3.272,7.487-4.106,8.482c0.031,0.019,0.024,0.021-0.013,0.016c-0.15,0.176-0.272,0.249-0.349,0.162
	c-0.279-0.316,0.209-0.187,0.349-0.162c0.004-0.005,0.009-0.01,0.013-0.016c-0.062-0.035-0.292-0.137-0.858-0.386
	c-1.938-0.853-3.02,0.71-5.09,3.386c-0.006,0.008-0.011,0.012-0.017,0.02c-1.859,2.438-3.718,4.776-5.378,6.776
	c0.007,1.277-0.009,2.769-0.073,4.704c-0.264,8-4.764,14-6.764,20s-4.5,8-3.5,14s6,8,10.5,7s6.5-3,8-6.5s2-1.5,2-8.5
	s3.5-22.5,6.5-29.5s10.772-8,14.136-13.5s5.864-7,6.864-2.5s3.5,7,1,11.5s-5,8-4.5,12.5s2.5,16.5,7.5,20s14.5,5,17.5,3
	s6.5-11,2.5-12.5s-9-2-10-5.5s-1.5-2.5,0.5-8.5s7.5-1.5,11-10s3-18.5,3.5-26.5s-3.5-11,2-13s12.94-3.57,16.914-8.078
	c1.429-1.62,2.859-2.294,4.137-2.386c-0.253-0.276-0.478-0.559-0.663-0.868C115.419,218.809,114.087,218.38,114.245,219.312z"/>
<path fill="#FFA725" d="M177.056,86.194c-0.043-0.66,0.111-1.532,0.111-2.828c0-4,0-7.881-2.123-11.943
	c-1.154-2.208-3.623-4.061-5.377-5.057c0-3,6.115-16.237,0.5-16.5c-3.531-0.165-12.862,4.448-15.5,11c-0.9,2.235-6.547,2.275-6.5,1
	c0.148-4.012,2.759-11.35,0.906-13.012c-2.831-2.541-9.67-0.018-13.17,3.982s-10.236,15.529-15.736,18.529s-17,26.5-19,36
	c-0.547,2.6-3.875,14.688-4.276,17.054c-0.572,3.367-2.288,6.411-4.598,8.125c-1.384,1.027-2.854,3.379-3.625,4.321
	c-4.5,5.5-10.5,6-16.5,17c-4.079,7.479-9.083,15.882-13.597,22.066c-2.125,2.912-4.142,5.333-5.903,6.934
	c-5.5,5-10.625,2.312-8.625,0.312s19.625-11.188,18.125-20.812c-1.461-9.374-11.5-8-20,0.5s-5.506,19.661-10.5,15.5
	c-3-2.5-4-3-3,0.5s1.18,2.817,2.812,6.312c-0.748-0.835-3.284-0.348-3.847,0.325c-1.654,1.976,2.535,4.862,3.035,7.862
	s1.5,3.5,0.5,10.5s-1,14.5-0.5,20s-0.604,2.5-2.802,14.5s0.198,17.5,0,26c-0.15,6.443,0.116,8.295,0.139,12.296
	c1.661-2,3.519-4.339,5.378-6.776c0.006-0.008,0.011-0.012,0.017-0.02c2.071-2.676,3.152-4.238,5.09-3.386
	c0.566,0.249,0.796,0.351,0.858,0.386c0.834-0.995,2.644-5.428,4.106-8.482c1.738-3.629,0.795-4.994,2.234-3.643
	s0.993,2.556,1.985-2.779s0-6.579,1.061-6.262s0.677,4.398,1.553,1.668s-0.628-6.95-1.373-10.701s0.993-2.454,1.986-0.725
	s1.489,0.505,0-5.204c-0.639-2.451-1.095-4.074-1.407-5.134c3.109-6.314,9.197-4.956,14.674-5.738c7-1,22-17.5,29-21
	c0.522-0.261,1.05-0.514,1.579-0.762c0.145-0.068,0.289-0.133,0.434-0.2c0.41-0.188,0.819-0.373,1.229-0.552
	c0.133-0.059,0.267-0.117,0.4-0.174c1.101-0.473,2.194-0.91,3.248-1.292c0.024-0.009,0.048-0.017,0.072-0.026
	c0.521-0.188,1.033-0.364,1.532-0.526c0.029-0.009,0.059-0.019,0.088-0.029c0.375-0.121,0.74-0.231,1.098-0.335
	c0.029-0.008,0.058-0.017,0.087-0.025c0.507-0.146,0.987-0.266,1.452-0.374c0.105-0.024,0.206-0.045,0.308-0.068
	c0.396-0.086,0.772-0.157,1.128-0.21c0.04-0.006,0.088-0.019,0.128-0.024c0,0.001,0,0.002,0,0.002
	c-0.16,2.863-0.374,7.099,0.118,10.144c0.685,4.243,2.19,8.161,3.286,5.449s2.875-1.11,2.875,0.896s-1.616,5.512-0.248,7.839
	s2.634,2.901,2.265,0.713c-0.158-0.932,1.174-0.503,2.81,2.223c0.186,0.31,0.41,0.592,0.663,0.868
	c1.175,1.282,2.997,2.413,4.724,5.31c0.848,2.76,3.583,8.168,6.527,13.13c2.212-7.445,5.531-17.026,7.698-15.976
	c0.935,0.453,2.181,1.058,3.502,1.698c-1.254-5.489-1.737-11.76-0.502-16.698c0-0.001,0-0.001,0-0.002
	c-0.203-0.364-0.395-0.744-0.578-1.132c-0.059-0.125-0.114-0.255-0.171-0.382c-0.122-0.27-0.24-0.542-0.353-0.821
	c-0.062-0.152-0.121-0.307-0.179-0.462c-0.102-0.269-0.201-0.54-0.295-0.816c-0.055-0.159-0.109-0.318-0.162-0.48
	c-0.096-0.295-0.186-0.595-0.274-0.897c-0.042-0.145-0.085-0.287-0.126-0.433c-0.116-0.421-0.225-0.848-0.327-1.28
	c-0.007-0.03-0.015-0.059-0.022-0.088c-0.109-0.466-0.208-0.939-0.302-1.417c-0.029-0.146-0.054-0.293-0.081-0.439
	c-0.063-0.337-0.124-0.676-0.18-1.018c-0.028-0.174-0.055-0.348-0.082-0.523c-0.049-0.326-0.097-0.652-0.141-0.981
	c-0.023-0.174-0.046-0.348-0.068-0.523c-0.043-0.351-0.083-0.703-0.121-1.056c-0.016-0.148-0.033-0.296-0.047-0.445
	c-0.049-0.491-0.093-0.983-0.131-1.476c0-0.008-0.001-0.016-0.002-0.023c-0.04-0.52-0.074-1.04-0.103-1.56
	c-0.006-0.106-0.01-0.212-0.016-0.318c-0.021-0.405-0.04-0.81-0.055-1.214c-0.005-0.145-0.01-0.29-0.015-0.435
	c-0.012-0.374-0.022-0.745-0.029-1.116c-0.003-0.141-0.006-0.28-0.008-0.42c-0.006-0.399-0.01-0.796-0.012-1.19
	c0-0.101-0.001-0.202-0.001-0.302c0-1.023,0.013-2.029,0.039-3.008c0-0.003,0-0.005,0-0.008c0.711-1.801,1.245-2.928,1.699-5.732
	c0.607-3.75,0.018-8.375,0-9.125s0.768,1.125,0.768,2.25s0.625,2,1.25-0.625s-0.25-6.75-1-8.625s0.5-1.5,1.125-0.375
	s0.875,2.375,1,1.125s0.375-3.5-1.375-8.625c-0.99-2.899-2.62-5.958-3.849-8.068c0,0,0,0,0,0c-0.145-0.437-0.296-0.876-0.452-1.314
	c-0.009-0.025-0.018-0.05-0.027-0.074c-0.146-0.41-0.296-0.818-0.45-1.226c-0.019-0.051-0.038-0.101-0.057-0.151
	c-0.145-0.38-0.292-0.758-0.44-1.134c-0.027-0.067-0.054-0.135-0.081-0.203c-0.141-0.354-0.284-0.705-0.428-1.051
	c-0.034-0.083-0.068-0.166-0.103-0.248c-0.135-0.323-0.271-0.642-0.406-0.957c-0.042-0.099-0.085-0.199-0.128-0.296
	c-0.127-0.293-0.254-0.58-0.381-0.864c-0.047-0.106-0.095-0.215-0.142-0.319c-0.125-0.278-0.249-0.547-0.372-0.813
	c-0.045-0.098-0.091-0.2-0.136-0.296c-0.164-0.353-0.326-0.695-0.483-1.023c-2.391-4.977,2.978-4.129,9.978,1.871
	c4.844,4.151,2.438-5.417-0.893-8.848c-4.771-4.915-9.102-5.761-8.94-18.985c0.167-13.667,10.718-17.365,18.5-18.333
	c8.839-1.1,21.333,6,21.333,6l2-1.333c0,0-2.5-2.833-1.377-7.559C172.696,87.534,174.871,86.447,177.056,86.194z"/>
<polygon fill="#FFCC00" points="217.667,363.866 215.667,363.866 194.667,339.366 180.417,345.866 178.917,345.866 166.417,336.616 
	166.417,338.116 166.417,338.866 146.917,349.116 143.667,349.366 102.049,322.866 102.049,321.116 102.049,319.616 84.917,312.866 
	84.917,310.866 84.917,302.173 86.917,300.866 105.917,288.866 104.167,287.366 105.917,276.116 107.417,274.366 119.667,270.366 
	120.667,266.366 121.667,265.116 127.917,263.366 128.969,257.366 130.779,255.866 172.485,240.777 195.167,245.095 
	196.417,247.616 200.361,247.341 212.667,253.116 213.917,254.366 216.167,263.366 225.917,268.366 225.917,269.616 
	228.167,278.662 228.167,280.616 225.167,282.366 225.167,286.116 236.917,291.116 236.917,292.616 238.917,302.321 
	238.917,303.366 227.667,308.616 227.417,310.616 229.667,322.116 228.667,324.611 224.167,326.116 238.917,343.366 
	238.917,345.366 238.917,352.366 237.417,354.366 "/>
<path fill="none" d="M135.444,147.798c-0.145-0.438-0.296-0.875-0.452-1.315C135.147,146.922,135.299,147.361,135.444,147.798
	C135.443,147.798,135.443,147.798,135.444,147.798z"/>
<path fill="#FFFFFF" d="M193.167,95.866c-1-3-2.5-4.5-10-6.5c-5.07-1.352-6.023-1.793-6.111-3.172
	c-2.186,0.253-4.36,1.34-5.099,4.447c-1.123,4.725,1.377,7.559,1.377,7.559l-2,1.333c0,0-12.494-7.1-21.333-6
	c-7.782,0.968-18.334,4.667-18.5,18.333c-0.161,13.224,4.169,14.071,8.94,18.985c3.331,3.431,5.737,13,0.893,8.848
	c-7-6-12.369-6.848-9.978-1.871c0.157,0.328,0.319,0.67,0.483,1.023c0.045,0.096,0.091,0.198,0.136,0.296
	c0.123,0.266,0.247,0.535,0.372,0.813c0.047,0.104,0.095,0.213,0.142,0.319c0.127,0.284,0.254,0.57,0.381,0.864
	c0.042,0.098,0.085,0.198,0.128,0.296c0.135,0.315,0.271,0.633,0.406,0.957c0.034,0.082,0.068,0.165,0.103,0.248
	c0.144,0.347,0.287,0.697,0.428,1.051c0.027,0.067,0.054,0.135,0.081,0.203c0.149,0.375,0.296,0.754,0.44,1.134
	c0.019,0.05,0.038,0.101,0.057,0.151c0.154,0.407,0.304,0.816,0.45,1.226c0.009,0.024,0.018,0.049,0.027,0.074
	c0.156,0.439,0.307,0.877,0.452,1.315c1.229,2.11,2.858,5.168,3.849,8.068c1.75,5.125,1.5,7.375,1.375,8.625s-0.375,0-1-1.125
	s-1.875-1.5-1.125,0.375s1.625,6,1,8.625s-1.25,1.75-1.25,0.625s-0.786-3-0.768-2.25s0.607,5.375,0,9.125
	c-0.454,2.804-0.988,3.931-1.699,5.732c0,0.002,0,0.005,0,0.008c-0.025,0.979-0.039,1.985-0.039,3.008
	c0,0.1,0.001,0.202,0.001,0.302c0.001,0.395,0.005,0.791,0.012,1.19c0.002,0.14,0.005,0.279,0.008,0.42
	c0.007,0.371,0.017,0.743,0.029,1.116c0.005,0.145,0.009,0.29,0.015,0.435c0.015,0.404,0.034,0.809,0.055,1.214
	c0.005,0.106,0.01,0.212,0.016,0.318c0.029,0.52,0.063,1.04,0.103,1.56c0,0.008,0.001,0.016,0.002,0.023
	c0.038,0.493,0.083,0.985,0.131,1.476c0.015,0.148,0.032,0.296,0.047,0.445c0.038,0.353,0.078,0.705,0.121,1.056
	c0.022,0.175,0.045,0.349,0.068,0.523c0.044,0.329,0.091,0.655,0.141,0.981c0.027,0.175,0.053,0.349,0.082,0.523
	c0.056,0.342,0.117,0.681,0.18,1.018c0.027,0.146,0.052,0.294,0.081,0.439c0.094,0.478,0.193,0.952,0.302,1.417
	c0.007,0.03,0.015,0.059,0.022,0.088c0.102,0.433,0.211,0.859,0.327,1.28c0.041,0.146,0.084,0.288,0.126,0.433
	c0.088,0.303,0.178,0.603,0.274,0.897c0.052,0.162,0.107,0.321,0.162,0.48c0.095,0.276,0.193,0.548,0.295,0.816
	c0.059,0.155,0.118,0.31,0.179,0.462c0.113,0.279,0.231,0.552,0.353,0.821c0.057,0.127,0.112,0.257,0.171,0.382
	c0.184,0.388,0.375,0.768,0.578,1.132c2-7.998,6.5-5.999,7-10.998c0.426-4.259,3.752-5.596,6.274-1.577
	c0.539-2.54,4.438-9.707,7.104-11.929c1.736-1.447,6.092-4.823,9.584-8.745c0,0,0.001,0,0.002-0.001
	c1.847-0.93,0.557-3.763,0.998-3.306s0.589,1.488,1.047,0s-0.687-3.319-1.047-5.38s0.589-1.259,1.505,0.343s0.687,2.404,1.488,0
	s-0.802-4.808-1.488-8.242s0-2.175,0.687-1.145s0.52,2.631,0.916,2.518c1.015-0.289,1.469-3.174-0.152-6.289
	c-1.642-3.155-1.832-5.196-0.865-4.951c0.64,0.162,1.534,5.094,1.948,0.534c0.275-3.031-2.031-6.46-2.83-6.67
	c-0.163-1.851-0.56-2.676-0.836-4.247c0.729-1.973,1.583-3.25,0.583-6.75c-0.802-2.678-1.813-4.96-2.417-6.167c-2.5-5,5,1.5,9-1
	s5-6-1-7.5s-18-11.5-14-11s15.5,4.464,21,2.982S194.167,98.866,193.167,95.866z"/>
<ellipse transform="matrix(0.8534 0.5212 -0.5212 0.8534 66.0974 -78.8855)" fill="#FFFFFF" cx="173.305" cy="78.077" rx="3.48" ry="1.859"/>
<ellipse transform="matrix(0.9236 -0.3834 0.3834 0.9236 -18.2516 66.4777)" fill="#FFFFFF" cx="157.66" cy="79.03" rx="4.927" ry="3.067"/>
<path d="M156.422,86.982c-1.119,1.079-1.734,3.715,0,2.873s2.924-2.527,4.459-2.576s2.873,0.595,3.566,1.486s3.27,1.536,2.526-0.545
	s-4.261-3.616-5.994-3.517S157.809,85.645,156.422,86.982z"/>
<path fill="#E06D00" d="M145.292,68.491c0,0-7.436,1.069-11.374,3.285c0.616-7.313,7.031-20.417,12.447-21.524
	C150.796,48.898,144.799,67.26,145.292,68.491z"/>
<ellipse cx="189.105" cy="97.75" rx="6.438" ry="6.366"/>
<path d="M180.006,110.642c-4.487-0.808-8.823-0.866-13.797-3.734c-1.942-1.12-6.251-2.824-6.985-0.917
	c-1.14,2.958,1.212,8.473,4.36,11.542c1.667,1.625,3.948,2.904,7.686,3.904s6.663,1.144,8.397,1.054
	c2.41-0.125,1.958-3.625-0.417-4.125s-5.209-1.26-7.125-2.625c-2.291-1.633-3.215-2.713-2.944-3.25
	C169.942,110.98,180,112.325,180.006,110.642z"/>
<path fill="#FFA725" d="M177.167,224.787c2.233-1.133,4.047-1.847,5.661-2.088c-1.041-2.71-1.992-5.821-2.661-9.333
	c-2-10.5-7-29-9-34.5c-0.359-0.989-0.686-1.946-0.975-2.894c-3.572,4.194-8.316,7.863-10.147,9.389
	c-2.666,2.222-6.564,9.389-7.104,11.929c0.438,0.699,0.855,1.54,1.226,2.577c2.5,7,15,34,19,40c0.829,1.243,1.569,2.307,2.262,3.229
	C175.415,243.033,171.768,227.524,177.167,224.787z"/>
<path fill="#FFA725" d="M96.809,197.178c1.102-0.474,2.193-0.908,3.248-1.292C99.002,196.269,97.91,196.705,96.809,197.178z"/>
<path fill="#FFA725" d="M102.933,194.945c0.506-0.145,0.988-0.267,1.452-0.374C103.92,194.679,103.44,194.8,102.933,194.945z"/>
<path fill="#FFA725" d="M104.693,194.503c0.395-0.085,0.773-0.157,1.128-0.21C105.466,194.347,105.089,194.417,104.693,194.503z"/>
<path fill="#FFA725" d="M104.385,194.571c0.105-0.024,0.206-0.045,0.308-0.068C104.591,194.526,104.49,194.547,104.385,194.571z"/>
<path fill="#FFA725" d="M105.95,194.269c-0.04,0.005-0.088,0.018-0.128,0.024c0.042-0.006,0.086-0.015,0.128-0.021
	C105.95,194.272,105.95,194.27,105.95,194.269z"/>
<path fill="#FFA725" d="M38.987,269.044c0.077,0.087,0.198,0.014,0.349-0.162C39.196,268.857,38.708,268.728,38.987,269.044z"/>
<path fill="#FFA725" d="M39.348,268.866c-0.004,0.006-0.008,0.011-0.013,0.016C39.372,268.888,39.379,268.885,39.348,268.866z"/>
<path fill="#CC0000" d="M170.334,138.366c-1.075,0.483-16.229,7.252-28.99,5.772c-8.537-0.99-18.496-4.725-27.468-9.313
	c-10.534-5.387-16.267-11.842-16.795-12.026c-1.093-0.382-2.333,1.666-3.717,4.969c-0.681,1.625-1.473,3.863-1.479,4.608
	c-0.008,0.943,9.838,7.966,18.449,11.824c10.417,4.667,20.583,9.664,36.673,9.667c9.41,0.001,23.077-6.484,25.298-7.383
	c1.987-0.805,1.439-1.507,1.05-4.43C172.98,139.241,172.98,137.179,170.334,138.366z"/>
<path fill="#FFA725" d="M152.942,143.648c0,0,1.515,2.109,1.747,4.805c0.182,2.113-0.834,4.558-0.834,4.558s0.873,0.635,3.272-0.256
	c2.626-0.975,2.379-3.654,2.06-5.614c-0.375-2.301-0.131-5.111-3.037-4.693C154.408,142.698,153.299,142.68,152.942,143.648z"/>
<ellipse transform="matrix(0.9958 -0.0918 0.0918 0.9958 -13.9627 15.1008)" fill="#FFA725" cx="157.089" cy="159.255" rx="5.316" ry="6.547"/>
<g>
	<path fill="#FF8980" d="M187.032,124.204c-0.555,0-1.077-0.096-1.553-0.287c-2.321-0.928-3.731-2.805-4.573-3.927
		c-0.573-0.763-0.919-1.223-1.488-1.34c-0.432-0.089-0.635-0.119-0.807-0.119h-0.416l-0.377,0.315
		c-0.046,0.045-0.094,0.102-0.139,0.171c-0.016,0.003-0.032,0.006-0.05,0.009c-0.359,0.063-0.805,0.128-1.383,0.128
		c-1.686,0-3.867-0.567-6.67-1.735c-2.643-1.101-4.07-2.116-4.896-2.955c1.4,0.445,3.258,0.621,4.856,0.621
		c1.512,0,4.406-0.157,6.813-1.207c0.847-0.369,1.882-0.556,3.079-0.556c3.145,0,6.743,1.306,8.396,2.184
		c0.451,0.24,0.864,0.453,1.243,0.648c2.34,1.206,2.903,1.543,3.203,2.936c0.276,1.288-0.293,2.334-0.819,2.986
		C190.409,123.369,188.673,124.204,187.032,124.204L187.032,124.204z"/>
	<path fill="#AD2545" d="M179.43,114.323c2.962,0,6.362,1.236,7.926,2.066c0.456,0.242,0.873,0.457,1.255,0.654
		c2.392,1.232,2.493,1.371,2.684,2.257c0.193,0.902-0.229,1.666-0.619,2.148c-0.849,1.05-2.312,1.756-3.644,1.756
		c-0.427,0-0.825-0.072-1.181-0.215c-2.062-0.825-3.316-2.494-4.146-3.599c-0.641-0.853-1.146-1.526-2.086-1.719
		c-0.449-0.092-0.729-0.139-1.008-0.139c-0.552,0-1.063,0.198-1.449,0.558c-0.258,0.037-0.559,0.066-0.915,0.066
		c-1.552,0-3.607-0.542-6.285-1.658c-0.339-0.141-0.656-0.28-0.953-0.417c0.195,0.004,0.374,0.006,0.529,0.006
		c1.589,0,4.64-0.167,7.214-1.291C177.47,114.482,178.372,114.323,179.43,114.323 M162.427,111.989
		c-0.274,0-0.211,0.453,0.242,1.341c0.531,1.04,1.522,2.931,6.522,5.014c3.485,1.452,5.608,1.812,7.055,1.812
		c0.628,0,1.128-0.068,1.557-0.144c1.077-0.19,0.516-0.48,0.808-0.48c0.091,0,0.268,0.029,0.605,0.098
		c0.636,0.13,2.142,3.716,5.892,5.216c0.612,0.245,1.265,0.358,1.924,0.358c3.379,0,6.94-2.965,6.218-6.324
		c-0.477-2.216-1.74-2.548-4.955-4.256c-1.579-0.839-5.372-2.3-8.864-2.3c-1.234,0-2.431,0.183-3.479,0.64
		c-1.818,0.793-4.21,1.124-6.414,1.124c-2.658,0-5.043-0.481-5.817-1.21C163.088,112.282,162.649,111.989,162.427,111.989
		L162.427,111.989z"/>
</g>
<polygon fill="#FFCC00" points="103.823,80.349 82.199,93.111 80.582,75.608 104.606,78.318 "/>
<polygon fill="#FFCC00" points="104.455,71.165 91.789,54.984 83.607,64.359 104.288,71.855 "/>
<polygon fill="#FFCC00" points="111.188,66.71 110.9,46.164 98.712,48.674 110.636,67.159 "/>
<polygon fill="#FFFF00" points="234.667,342.699 221.834,348.366 215,340.366 219.167,328.366 215.667,323.033 208.167,332.699 
	203.167,326.199 210.334,316.699 208,314.199 200.5,323.866 195.167,317.033 201.834,308.699 197.334,304.199 194.5,303.366 
	187.334,306.366 189.834,311.866 185.167,306.866 185.167,305.533 196.5,300.533 198.5,300.533 234.667,340.533 "/>
<polygon fill="#FFFF00" points="218.667,350.699 217.834,359.199 216.5,360.199 214.834,358.866 208.167,349.866 208.167,341.533 
	205.667,338.199 204.834,345.366 201.167,341.699 202.167,333.699 200.334,331.366 199.167,338.533 194.5,333.033 197.334,332.699 
	198.167,330.199 197.667,325.366 "/>
<polygon fill="#FFFF00" points="236.199,345.782 237.033,346.699 236.199,352.199 232.033,354.533 232.033,350.157 227.533,356.533 
	224.366,358.199 227.366,351.991 228.033,350.699 "/>
<polygon fill="#FFFF00" points="180.867,333.033 179.533,333.033 178.367,332.033 178.367,339.866 174.2,339.866 179.033,343.533 
	180.867,343.533 185.7,341.033 181.033,341.033 "/>
<polygon fill="#FFFF00" points="218.125,316.817 226.458,313.151 227.625,321.151 227.625,322.151 222.875,323.568 220.958,321.484 
	222.875,315.984 219.792,317.317 219.292,319.317 219.042,319.734 217.334,317.776 217.334,317.151 "/>
<polygon fill="#FFFF00" points="220.855,310.741 224.23,311.179 226.23,310.96 226.667,309.804 225.667,299.991 224.73,300.533 
	211.292,299.991 211.98,300.533 223.605,301.304 224.605,302.491 225.042,309.179 224.042,309.991 "/>
<polygon fill="#FFFF00" points="226.667,297.804 227.667,306.616 236.167,302.804 233.542,302.554 230.105,302.21 229.23,297.804 
	233.667,295.429 234.855,295.429 236.542,300.533 235.855,294.491 235.042,294.179 "/>
<polygon fill="#FFFF00" points="224.792,296.804 208.855,296.804 221.23,294.804 222.542,293.491 223.022,286.616 223.792,285.804 
	224.292,285.804 "/>
<polygon fill="#FFFF00" points="225.917,293.366 225.917,296.116 235.23,291.679 235.23,291.304 225.314,287.239 225.542,289.429 
	231.23,290.929 230.855,292.366 "/>
<polygon fill="#FFFF00" points="204.792,298.741 203.355,297.991 202.417,297.991 201.542,301.866 201.855,301.866 203.167,299.054 
	"/>
<polygon fill="#FFFF00" points="190.667,300.533 190.292,299.616 189.792,299.304 132.542,312.366 132.98,313.054 146.98,310.616 
	146.73,311.241 131.792,314.491 124.417,303.554 124.105,304.554 128.667,312.179 128.855,321.679 130.792,325.929 131.98,326.366 
	133.042,326.366 134.355,323.554 143.167,321.554 145.355,312.491 150.417,311.304 148.355,320.679 154.042,319.929 155.98,309.929 
	159.292,309.616 157.386,319.491 161.667,318.179 164.605,306.929 189.667,300.533 "/>
<polygon fill="#FFFF00" points="168.605,307.366 165.792,307.991 164.23,314.304 167.73,313.491 "/>
<polygon fill="#FFFF00" points="199.292,308.054 193.23,316.116 190.667,313.429 197.292,305.241 "/>
<polygon fill="#FFFF00" points="164.667,338.179 145.917,347.429 144.48,347.429 103.355,321.491 104.355,312.835 112.167,317.616 
	111.73,324.741 117.042,328.616 117.936,320.866 123.542,324.116 122.855,332.241 126.355,334.116 127.042,326.366 131.167,329.054 
	130.167,336.366 135.105,340.116 136.73,332.554 140.73,335.554 140.355,343.429 144.355,346.241 144.23,337.991 142.667,335.866 
	145.667,337.616 154.417,333.241 146.98,338.429 146.605,345.866 153.855,342.616 151.792,336.616 154.542,334.554 157.386,340.429 
	160.105,339.679 159.167,337.179 "/>
<polygon fill="#FFFF00" points="160.605,327.741 146.23,335.429 145.917,334.679 140.98,331.929 146.667,333.616 161.167,326.366 
	"/>
<polygon fill="#FFFF00" points="102.167,309.7 102.167,315.533 102.167,317.27 87.292,311.663 87.292,309.116 87.667,303.507 "/>
<polygon fill="#FFFF00" points="115.001,312.835 108.501,305.585 108.501,297.991 104.334,296.919 104.334,294.179 106.167,294.179 
	114.167,302.711 115.001,299.929 130.001,295.033 130.667,296.116 116.334,300.897 115.834,312.835 "/>
<polygon fill="#FFFF00" points="102.167,305.585 91.327,301.165 98.501,296.033 97.491,299.033 102.167,300.533 102.167,302.711 "/>
<polygon fill="#FFFF00" points="117.501,286.429 110.667,288.7 106.167,287.564 105.167,285.804 106.334,277.7 117.501,284.2 "/>
<polygon fill="#FFFF00" points="149.001,301.866 147.501,302.711 146.334,301.866 140.98,287.367 127.167,284.367 120.501,273.533 
	121.834,267.2 147.334,294.179 149.001,291.304 168.107,286.429 168.107,291.272 165.834,288.7 151.074,293.033 "/>
<polygon fill="#FFFF00" points="190.667,294.179 185.167,296.919 183.001,293.033 180.834,294.179 181.501,287.533 224.23,271.367 
	225.965,278.429 223.946,281.021 192.501,291.272 "/>
<polygon fill="#FFFF00" points="214.167,265.033 168.605,284.956 167.501,284.956 165.501,278.867 153.334,273.7 154.167,267.2 
	168.107,273.867 168.605,283.2 170.167,283.2 170.334,273.867 177.501,270.367 183.751,276.533 187.834,274.995 183.751,268.7 
	189.167,266.533 193.334,272.7 199.834,270.367 196.501,263.533 199.292,262.533 203.167,268.533 211.292,265.033 209.917,259.2 
	206.583,259.2 212.667,256.533 213.181,258.691 "/>
<polygon fill="#FFFF00" points="145.001,273.033 129.167,268.533 129.167,267.867 130.667,259.033 144.304,264.367 143.501,265.033 
	133.167,263.7 132.834,266.033 144.304,270.745 "/>
<polygon fill="#FFFF00" points="169.231,270.745 157.386,265.367 185.284,251.129 189.3,251.496 193.699,251.496 198.98,250.232 
	211.292,254.7 201.061,260.384 203.834,256.533 201.061,253.367 194.98,252.867 168.107,266.033 170.834,267.867 182.829,266.033 
	"/>
<polygon fill="#FF9900" points="214.314,315.422 211.292,311.179 222.167,312.835 "/>
<polygon fill="#FF9900" points="202.417,291.866 200.917,300.533 199.292,298.616 198.376,293.491 197.292,294.179 195.917,299.304 
	192.042,299.991 189.792,296.2 "/>
<polygon fill="#FF9900" points="179.417,306.089 174.292,314.033 174.292,316.116 168.107,317.27 170.292,316.116 169.917,311.179 
	173.667,310.679 170.917,308.908 171.167,306.089 180.292,303.741 "/>
<polygon fill="#FF9900" points="168.107,335.991 165.667,335.158 163.667,326.366 163.182,325.491 156.133,321.366 162.121,319.241 
	172.542,317.27 172.542,318.616 164.667,321.241 164.667,322.866 169.792,328.366 "/>
<polygon fill="#FF9900" points="194.5,338.783 188.042,330.897 182.792,333.616 186.792,334.241 187.417,338.783 186.542,341.331 
	"/>
<polygon fill="#FF9900" points="176.792,300.897 171.167,301.866 171.917,297.991 168.605,287.116 175.667,284.241 178.167,287.366 
	174.917,287.616 174.2,296.2 "/>
<polygon fill="#FF9900" points="166.417,296.804 164.337,293.054 161.167,293.616 161.167,298.491 "/>
<polygon fill="#FF9900" points="142.542,301.866 138.917,298.491 123.667,301.866 122.057,309.866 120.501,309.866 119.238,301.241 
	134.011,296.2 135.542,293.054 141.917,299.991 "/>
<polygon fill="#FF9900" points="125.542,284.956 119.667,285.804 119.667,282.741 122.057,280.991 "/>
<polygon fill="#FF9900" points="107.917,308.908 105.167,309.866 103.355,311.179 103.355,307.366 104.334,304.339 "/>
<polygon fill="#FF9900" points="107.168,304.339 104.334,301.46 104.334,297.991 105.751,298.491 "/>
<polygon fill="#FF9900" points="144.304,300.533 131.667,287.991 140.98,289.491 "/>
<polygon fill="#FF9900" points="163.182,285.804 153.334,286.491 152.292,279.741 "/>
<polygon fill="#FF9900" points="164.337,283.397 151.667,276.741 152.292,274.491 163.182,279.741 "/>
<polygon fill="#FF9900" points="152.292,266.616 151.074,273.991 148.292,275.241 148.292,264.741 150.292,267.2 "/>
<polygon fill="#FF9900" points="130.89,271.367 140.98,280.242 137.986,275.242 143.417,275.805 "/>
<polygon fill="#FF9900" points="119.667,275.241 119.667,277.054 123.667,280.991 "/>
<polygon fill="#FF9900" points="133.383,291.866 126.042,285.804 119.667,287.366 125.542,287.366 129.167,291.304 126.525,293.616 
	131.667,293.616 "/>
<polygon fill="#FF9900" points="159,262.113 159.75,260.47 155.835,261.291 171.219,254.738 171.219,256.049 177,253.863 
	176,255.209 166.438,259.488 "/>
<polygon fill="#FFFF00" points="189.792,330.632 176.332,313.575 183.062,306.089 187.646,312.179 183.062,309.866 180.834,312.835 
	"/>
<polygon fill="#FFFF00" points="179.417,322.908 185.167,328.366 185.167,330.632 180.292,331.95 176.332,330.632 168.107,322.908 
	178.167,328.366 180.834,327.429 "/>
<polygon fill="#FFFF00" points="208.855,270.367 216.73,266.033 223.946,268.2 202.417,277.7 216.73,269.991 "/>
<polygon fill="#FFFF00" points="129.932,305.585 137.154,308.908 150.292,305.585 142.542,305.585 136.835,300.533 131.667,301.165 
	137.986,305.241 136.835,306.089 129.932,302.321 "/>
<polygon fill="#FF9900" points="152.292,322.908 136.835,324.611 135.969,327.429 140.112,330.632 140.112,327.429 150.292,329.691 
	155.012,328.366 148.292,326.366 152.292,324.611 156.133,326.366 159.152,324.611 154.805,322.908 "/>
<polygon fill="#FF9900" points="126.525,321.936 121.667,312.835 115.478,314.033 110.001,311.179 107.917,311.179 115.478,316.116 
	121.667,315.422 123.667,319.377 "/>
<polygon fill="#FF9900" points="183.751,284.241 179.417,283.116 202.417,272.616 "/>
<polygon fill="#FF9900" points="220.213,285.804 204.792,291.272 204.792,294.263 216.824,293.054 211.292,291.272 "/>
<polygon fill="#FF9900" points="205.765,303.507 209.917,308.908 218.98,310.372 211.292,305.585 217.334,301.866 205.765,300.499 
	"/>
<polygon fill="#FFFF00" points="122.057,295.772 114.235,296.919 107.917,291.304 117.936,288.7 113.225,291.866 114.987,294.263 
	"/>
<polygon fill="#FFFF00" points="168.107,302.711 153.334,305.241 152.292,302.711 153.334,295.772 159.152,293.054 154.805,298.491 
	154.805,301.866 "/>
<polygon fill="#FFFF00" points="156.085,259.033 151.667,261.583 156.085,262.051 151.667,264.233 131.997,256.741 136.046,255.376 
	141.201,257.979 148.745,259.805 153.154,259.504 "/>
<polyline fill="#FFFF00" points="181.967,249.711 177.167,248.097 174.873,245.992 173.002,242.64 171.25,243.095 172.28,246.603 
	171.415,250.232 169.683,253.074 164.661,256.533 175.855,251.839 172.222,251.527 176.198,249.186 175.34,250.903 182.279,249.711 
	"/>
<polygon fill="#FFFFFF" points="226.473,335.158 232.209,341.964 221.709,347.505 218.015,342.741 222.292,345.074 228.417,341.331 
	"/>
<polygon fill="#FFFFFF" points="213.932,347.033 217.334,350.533 216.824,358.797 211.292,352.915 215.779,355.978 216.265,351.019 
	"/>
<polygon fill="#FFFFFF" points="208.196,330.897 215.39,321.061 212.279,317.27 212.667,319.241 205.765,327.672 "/>
<polygon fill="#FFFFFF" points="200.515,321.936 198.376,319.241 204.792,312.312 204.792,308.908 207.807,313.283 "/>
<polygon fill="#FFFFFF" points="226.125,316.388 226.709,321.054 223.404,322.609 225.542,319.984 "/>
<polygon fill="#FFFFFF" points="149.084,310.372 163.182,307.366 163.182,306.089 149.571,309.2 "/>
<polygon fill="#FFFFFF" points="136.835,314.741 132.557,315.325 131.682,315.325 129.932,313.575 130.667,316.395 131.488,324.611 
	134.011,316.978 "/>
<polygon fill="#FFFFFF" points="109.126,323.45 104.334,320.645 105.432,314.304 110.001,317.366 106.501,316.297 105.918,319.672 
	"/>
<polygon fill="#FFFFFF" points="121.766,330.95 119.238,329.103 120.501,322.908 122.057,324.45 "/>
<polygon fill="#FFFFFF" points="96.489,314.075 88.357,311.544 90.385,306.468 96.747,308.345 91.983,307.748 91.447,310.271 "/>
<polygon fill="#FFFFFF" points="101.23,302.991 93.751,300.81 96.748,297.991 96.071,300.091 "/>
<polygon fill="#FFFFFF" points="223.022,275.241 220.543,281.116 213.181,283.397 215.73,277.7 209.917,279.319 208.855,284.956 
	202.417,286.491 204.792,280.991 198.376,283.397 196.105,288.7 193.098,289.71 194.98,283.397 222.946,274.033 "/>
<polygon fill="#FFFFFF" points="113.225,283.116 107.528,279.741 106.778,284.956 107.528,286.491 109.612,287.991 109.612,283.116 
	"/>
<polygon fill="#FFFFFF" points="114.987,310.505 112.373,307.616 112.373,302.711 114.987,304.339 "/>
<polygon fill="#FFFFFF" points="166.417,274.491 156.133,269.044 154.805,273.033 157.738,271.768 "/>
<polygon fill="#FFFFFF" points="172.542,281.491 172.542,274.491 178.167,271.768 179.167,274.033 174.883,275.241 "/>
<polygon fill="#FFFFFF" points="189.792,286.429 187.636,294.263 185.167,294.179 187.48,287.991 "/>
<path fill="#FFFFFF" d="M183.167,248.366c4,0.5,14,2,16-1s3-5.5,0-8.5s-8.5-2-10.5-5c-1.331-1.996-3.768-5.774-5.839-11.167
	c-1.614,0.241-3.428,0.955-5.661,2.088c-5.399,2.737-1.753,18.246-1.738,18.308C178.08,246.622,179.997,247.97,183.167,248.366z"/>
<path fill="#FFFFFF" d="M146.667,256.366c3,0.5,11.769,0.394,14.542-0.507c5.8-1.883,11.458-10.493,5.458-14.993s-9.5-4.5-13.5-3.5
	s-7,4-10-2c-1.148-2.296-2.22-5.399-2.998-8.802c-1.322-0.641-2.568-1.245-3.502-1.698c-2.167-1.051-5.486,8.53-7.698,15.976
	c2.186,3.685,4.482,7.118,6.198,9.024C139.667,254.866,143.667,255.866,146.667,256.366z"/>
<path fill="#FFFFFF" d="M176.399,121.151c-0.104,0.727-3.731,0.822-3.236-1.465c0.203-0.942,1.315-3.249,1.884-3.607
	C175.85,115.84,176.531,118.488,176.399,121.151z"/>
</svg>
