

<svg id="svg" version="1.1"
	xmlns="http://www.w3.org/2000/svg"
	background="transparent"
	xmlns:xlink="http://www.w3.org/1999/xlink" width="400" height="390.75144508670525" viewBox="0, 0, 400,390.75144508670525">
<g id="svgg">
		<path id="path0" d="M157.139 58.809 C 58.106 157.664,20.943 194.725,18.445 197.123 C 16.956 198.551,15.619 199.913,15.474 200.149 C 15.320 200.397,22.549 207.916,32.622 217.988 L 50.036 235.398 53.543 231.971 C 55.472 230.086,61.106 224.603,66.062 219.786 C 71.018 214.969,75.072 210.834,75.071 210.597 C 75.069 210.131,73.640 208.573,70.333 205.433 C 67.745 202.976,67.213 202.126,67.707 201.242 C 67.911 200.877,77.702 190.935,89.464 179.147 C 101.227 167.359,130.064 138.417,153.548 114.830 C 177.031 91.243,196.541 71.945,196.902 71.945 C 197.461 71.945,204.428 78.225,204.819 79.081 C 205.164 79.837,207.500 79.300,208.798 78.166 C 209.550 77.508,211.001 76.235,212.021 75.337 C 214.905 72.799,227.028 60.799,227.425 60.090 C 227.620 59.741,228.520 58.679,229.426 57.729 L 231.071 56.002 230.198 54.890 C 229.440 53.923,210.844 34.974,199.738 23.850 L 195.956 20.063 157.139 58.809 M288.010 21.799 C 287.849 21.960,284.081 22.202,279.636 22.337 C 275.191 22.472,270.323 22.678,268.817 22.794 C 258.451 23.596,258.549 23.575,259.824 24.633 C 260.147 24.901,260.411 25.348,260.411 25.626 C 260.411 25.905,260.547 26.191,260.713 26.263 C 261.302 26.516,268.622 34.469,268.622 34.855 C 268.622 35.070,268.878 35.503,269.192 35.816 C 270.078 36.703,270.902 35.830,241.595 65.103 C 226.308 80.371,211.248 95.503,208.129 98.729 C 205.009 101.955,164.734 142.338,118.628 188.470 C 72.522 234.601,34.800 272.456,34.800 272.593 C 34.800 272.964,53.793 291.961,54.350 292.147 C 54.614 292.235,97.259 249.846,149.116 197.949 C 200.973 146.051,253.718 93.266,266.327 80.647 C 278.936 68.029,289.457 57.636,289.707 57.553 C 291.020 57.115,291.693 57.596,297.823 63.357 C 299.089 64.547,300.955 66.080,301.969 66.765 L 303.812 68.009 303.812 45.376 C 303.812 32.927,303.706 22.464,303.575 22.124 C 303.320 21.459,288.654 21.153,288.010 21.799 " stroke="none" fill="#949ca4" fill-rule="evenodd"></path>
		<path id="path1" d="M270.128 95.367 C 269.600 95.782,266.352 98.908,262.908 102.313 C 255.570 109.571,248.059 116.780,246.681 117.889 C 246.147 118.319,245.602 118.951,245.471 119.294 C 245.298 119.745,256.086 130.766,284.700 159.372 C 315.224 189.886,324.142 199.015,324.058 199.657 C 323.858 201.184,196.104 328.967,194.778 328.967 C 193.685 328.967,192.010 327.468,189.834 324.543 C 187.471 321.366,188.259 320.970,179.239 329.864 C 174.959 334.084,169.125 339.833,166.275 342.637 C 160.597 348.224,160.899 347.595,162.854 349.776 C 163.069 350.016,164.037 351.159,165.005 352.315 C 167.009 354.710,190.232 378.104,190.606 378.104 C 190.740 378.104,191.449 378.685,192.181 379.396 C 192.913 380.108,193.949 380.923,194.483 381.209 C 195.437 381.719,196.980 380.200,283.553 293.457 C 332.007 244.908,372.664 204.209,373.900 203.014 C 375.137 201.820,376.149 200.656,376.149 200.428 C 376.149 200.199,363.480 187.340,347.996 171.850 C 332.512 156.361,319.844 143.589,319.844 143.467 C 319.844 143.308,272.092 95.438,271.213 94.716 C 271.144 94.659,270.655 94.952,270.128 95.367 M151.808 227.459 C 107.884 271.440,71.945 307.538,71.945 307.676 C 71.945 307.813,72.424 308.443,73.010 309.074 C 74.062 310.209,75.471 311.846,78.273 315.192 C 79.065 316.137,80.270 317.527,80.952 318.280 C 81.633 319.032,82.833 320.430,83.617 321.385 C 84.402 322.341,85.484 323.601,86.022 324.186 C 86.559 324.770,87.404 325.729,87.899 326.316 L 88.798 327.384 96.634 319.606 C 100.944 315.328,114.858 301.491,127.554 288.856 C 140.250 276.222,150.663 265.885,150.694 265.885 C 150.725 265.885,165.702 251.022,183.977 232.856 C 202.252 214.690,217.410 199.822,217.660 199.816 C 217.911 199.810,218.178 199.621,218.252 199.397 C 218.451 198.802,249.903 167.351,250.300 167.351 C 251.168 167.351,250.464 165.402,248.970 163.668 C 245.636 159.800,232.895 147.411,232.292 147.450 C 231.951 147.473,195.733 183.477,151.808 227.459 M166.830 283.907 C 133.783 317.045,106.745 344.425,106.745 344.751 C 106.745 345.078,108.497 347.042,110.637 349.115 C 118.507 356.735,123.580 361.489,123.986 361.626 C 124.215 361.704,130.653 355.545,138.294 347.941 C 145.934 340.337,161.040 325.318,171.862 314.565 C 182.685 303.812,200.508 286.085,211.470 275.171 C 222.432 264.257,231.549 255.303,231.731 255.273 C 231.914 255.243,234.702 252.453,237.928 249.071 C 241.153 245.690,244.013 242.899,244.282 242.869 C 245.777 242.704,244.175 240.717,235.903 232.483 C 231.026 227.628,227.009 223.656,226.976 223.656 C 226.943 223.656,199.877 250.769,166.830 283.907 " stroke="none" fill="#145c9b" fill-rule="evenodd"></path>
		<path id="path3" d="M267.551 97.197 C 260.436 104.156,248.060 116.038,246.646 117.266 C 243.841 119.703,240.748 116.211,284.267 159.732 C 306.038 181.503,323.785 199.490,323.705 199.703 C 323.624 199.915,294.682 229.076,259.388 264.505 C 197.469 326.660,195.185 328.903,194.293 328.426 C 193.193 327.837,193.007 327.650,191.011 325.122 C 188.851 322.385,188.209 321.797,187.406 321.813 C 187.021 321.820,180.823 327.608,173.632 334.673 L 160.558 347.520 161.284 348.638 C 162.570 350.618,168.193 356.608,178.299 366.765 C 188.189 376.703,194.048 382.014,195.123 382.014 C 195.672 382.014,203.169 374.751,218.434 359.433 C 230.809 347.014,271.446 306.287,308.737 268.929 C 349.513 228.081,376.532 200.728,376.522 200.308 C 376.512 199.916,353.332 176.325,323.810 146.660 L 271.116 93.711 267.551 97.197 M295.591 119.033 C 308.930 132.351,319.844 143.346,319.844 143.467 C 319.844 143.589,332.512 156.361,347.996 171.850 C 363.480 187.340,376.149 200.199,376.149 200.428 C 376.149 200.656,375.137 201.820,373.900 203.014 C 372.664 204.209,332.007 244.908,283.553 293.457 C 196.980 380.200,195.437 381.719,194.483 381.209 C 193.949 380.923,192.913 380.108,192.181 379.396 C 191.449 378.685,190.740 378.104,190.606 378.104 C 190.232 378.104,167.009 354.710,165.005 352.315 C 164.037 351.159,163.069 350.016,162.854 349.776 C 160.899 347.595,160.597 348.224,166.275 342.637 C 169.125 339.833,174.959 334.084,179.239 329.864 C 188.259 320.970,187.471 321.366,189.834 324.543 C 192.010 327.468,193.685 328.967,194.778 328.967 C 196.104 328.967,323.858 201.184,324.058 199.657 C 324.142 199.015,315.224 189.886,284.700 159.372 C 256.086 130.766,245.298 119.745,245.471 119.294 C 245.602 118.951,246.147 118.319,246.681 117.889 C 248.059 116.780,255.570 109.571,262.908 102.313 C 268.989 96.299,270.953 94.503,271.213 94.716 C 271.282 94.773,282.252 105.715,295.591 119.033 M151.613 227.078 C 107.580 271.110,71.554 307.375,71.554 307.665 C 71.554 308.151,73.332 310.310,79.305 317.081 C 80.526 318.464,81.965 320.148,82.502 320.823 C 85.948 325.149,88.470 327.601,89.198 327.332 C 89.611 327.178,103.626 313.421,120.341 296.761 C 137.057 280.100,165.944 251.425,184.534 233.038 C 229.167 188.897,251.417 166.685,251.417 166.273 C 251.417 165.032,233.679 147.019,232.458 147.019 C 231.932 147.019,205.074 173.615,151.613 227.078 M240.112 154.577 C 249.910 164.331,252.319 167.351,250.300 167.351 C 249.903 167.351,218.451 198.802,218.252 199.397 C 218.178 199.621,217.911 199.810,217.660 199.816 C 217.410 199.822,202.252 214.690,183.977 232.856 C 165.702 251.022,150.725 265.885,150.694 265.885 C 150.663 265.885,140.250 276.222,127.554 288.856 C 114.858 301.491,100.944 315.328,96.634 319.606 L 88.798 327.384 87.899 326.316 C 87.404 325.729,86.559 324.770,86.022 324.186 C 85.484 323.601,84.402 322.341,83.617 321.385 C 82.833 320.430,81.633 319.032,80.952 318.280 C 80.270 317.527,79.065 316.137,78.273 315.192 C 75.471 311.846,74.062 310.209,73.010 309.074 C 72.424 308.443,71.945 307.813,71.945 307.676 C 71.945 307.134,231.711 147.489,232.292 147.450 C 232.633 147.428,236.152 150.635,240.112 154.577 M226.576 223.495 C 226.205 223.651,205.511 244.362,133.039 317.110 C 118.147 332.059,105.963 344.530,105.963 344.824 C 105.963 345.118,107.939 347.228,110.354 349.512 C 112.769 351.797,116.596 355.476,118.858 357.689 C 121.121 359.902,123.356 361.809,123.826 361.928 C 124.736 362.158,126.977 359.980,172.557 314.557 C 182.919 304.230,203.461 283.820,218.205 269.200 C 232.949 254.581,245.120 242.333,245.252 241.982 C 245.426 241.521,243.493 239.362,238.250 234.162 C 234.266 230.212,230.204 226.144,229.222 225.122 C 227.427 223.255,227.315 223.186,226.576 223.495 M235.903 232.483 C 244.175 240.717,245.777 242.704,244.282 242.869 C 244.013 242.899,241.153 245.690,237.928 249.071 C 234.702 252.453,231.914 255.243,231.731 255.273 C 231.549 255.303,222.432 264.257,211.470 275.171 C 200.508 286.085,182.685 303.812,171.862 314.565 C 161.040 325.318,145.934 340.337,138.294 347.941 C 130.653 355.545,124.215 361.704,123.986 361.626 C 123.580 361.489,118.507 356.735,110.637 349.115 C 108.497 347.042,106.745 345.078,106.745 344.751 C 106.745 344.323,226.551 223.656,226.976 223.656 C 227.009 223.656,231.026 227.628,235.903 232.483 " stroke="none" fill="#6c9cbd" fill-rule="evenodd"></path>
		<path id="path4" d="M156.523 58.369 C 135.191 79.707,94.607 120.262,66.337 148.493 C 38.066 176.723,14.846 200.054,14.736 200.341 C 14.615 200.656,21.566 207.886,32.292 218.602 L 50.048 236.342 52.492 233.969 C 53.836 232.663,57.653 228.973,60.972 225.768 C 64.292 222.563,69.068 217.941,71.587 215.496 L 76.165 211.051 75.417 209.783 C 75.006 209.086,73.255 207.235,71.527 205.669 C 69.081 203.453,68.411 202.622,68.503 201.917 C 68.606 201.133,102.174 167.197,188.771 80.333 C 197.383 71.695,196.691 72.008,199.853 75.310 C 204.636 80.306,206.379 81.040,208.806 79.081 C 216.266 73.061,231.476 57.429,231.476 55.781 C 231.476 55.370,230.464 54.002,229.228 52.743 C 209.328 32.478,196.338 19.553,195.879 19.562 C 195.565 19.568,177.855 37.032,156.523 58.369 M216.422 40.707 C 223.519 47.896,229.718 54.278,230.198 54.890 L 231.071 56.002 229.426 57.729 C 228.520 58.679,227.620 59.741,227.425 60.090 C 227.028 60.799,214.905 72.799,212.021 75.337 C 211.001 76.235,209.550 77.508,208.798 78.166 C 207.500 79.300,205.164 79.837,204.819 79.081 C 204.428 78.225,197.461 71.945,196.902 71.945 C 196.541 71.945,177.031 91.243,153.548 114.830 C 130.064 138.417,101.227 167.359,89.464 179.147 C 77.702 190.935,67.911 200.877,67.707 201.242 C 67.213 202.126,67.745 202.976,70.333 205.433 C 73.640 208.573,75.069 210.131,75.071 210.597 C 75.072 210.834,71.018 214.969,66.062 219.786 C 61.106 224.603,55.472 230.086,53.543 231.971 L 50.036 235.398 32.622 217.988 C 22.549 207.916,15.320 200.397,15.474 200.149 C 15.619 199.913,16.956 198.551,18.445 197.123 C 20.943 194.725,58.106 157.664,157.139 58.809 L 195.956 20.063 199.738 23.850 C 201.817 25.933,209.326 33.519,216.422 40.707 M284.457 21.141 C 282.737 21.305,276.403 21.639,270.381 21.883 C 256.786 22.432,256.947 22.338,261.033 27.370 C 262.168 28.768,263.600 30.352,264.215 30.890 C 266.314 32.724,268.658 36.024,268.412 36.798 C 268.169 37.563,256.335 49.458,119.204 186.759 C 72.352 233.670,34.018 272.284,34.018 272.568 C 34.018 273.399,53.646 292.864,54.485 292.864 C 54.952 292.864,98.798 249.253,172.615 175.367 C 237.178 110.743,290.172 57.869,290.378 57.869 C 290.756 57.869,293.993 60.650,296.976 63.539 C 300.761 67.203,302.946 68.692,303.964 68.302 C 304.708 68.016,304.945 23.651,304.213 21.726 L 303.832 20.723 295.709 20.782 C 291.241 20.815,286.178 20.976,284.457 21.141 M303.575 22.124 C 303.706 22.464,303.812 32.927,303.812 45.376 L 303.812 68.009 301.969 66.765 C 300.955 66.080,299.089 64.547,297.823 63.357 C 291.693 57.596,291.020 57.115,289.707 57.553 C 289.457 57.636,278.936 68.029,266.327 80.647 C 253.718 93.266,200.973 146.051,149.116 197.949 C 97.259 249.846,54.614 292.235,54.350 292.147 C 53.793 291.961,34.800 272.964,34.800 272.593 C 34.800 272.456,72.522 234.601,118.628 188.470 C 164.734 142.338,205.009 101.955,208.129 98.729 C 211.248 95.503,226.308 80.371,241.595 65.103 C 270.902 35.830,270.078 36.703,269.192 35.816 C 268.878 35.503,268.622 35.070,268.622 34.855 C 268.622 34.469,261.302 26.516,260.713 26.263 C 260.547 26.191,260.411 25.905,260.411 25.626 C 260.411 25.348,260.147 24.901,259.824 24.633 C 258.549 23.575,258.451 23.596,268.817 22.794 C 270.323 22.678,275.191 22.472,279.636 22.337 C 284.081 22.202,287.849 21.960,288.010 21.799 C 288.654 21.153,303.320 21.459,303.575 22.124 M267.360 96.676 C 265.552 98.451,262.236 101.662,259.990 103.812 C 249.301 114.050,243.988 119.320,243.988 119.687 C 243.988 119.908,261.855 137.959,283.692 159.800 C 305.529 181.641,323.345 199.564,323.282 199.629 C 313.028 210.227,195.167 328.055,194.820 328.055 C 194.252 328.055,193.149 326.978,190.283 323.626 C 187.463 320.328,187.512 320.308,180.182 327.664 C 176.753 331.105,173.887 333.920,173.813 333.920 C 173.390 333.920,160.313 347.323,160.313 347.757 C 160.313 348.384,161.532 349.988,163.539 352.000 C 164.345 352.808,165.005 353.564,165.005 353.679 C 165.005 354.391,186.205 375.440,192.756 381.232 C 194.110 382.430,195.120 382.831,195.810 382.445 C 196.710 381.943,214.272 364.350,214.272 363.950 C 214.272 363.778,214.411 363.636,214.581 363.636 C 214.751 363.636,220.689 357.808,227.777 350.684 C 234.865 343.560,271.413 306.942,308.993 269.311 C 346.574 231.679,377.322 200.627,377.322 200.305 C 377.322 199.764,360.687 182.954,296.101 118.225 C 282.505 104.599,271.216 93.451,271.014 93.451 C 270.813 93.451,269.168 94.902,267.360 96.676 M376.522 200.308 C 376.532 200.728,349.513 228.081,308.737 268.929 C 271.446 306.287,230.809 347.014,218.434 359.433 C 203.169 374.751,195.672 382.014,195.123 382.014 C 194.048 382.014,188.189 376.703,178.299 366.765 C 168.193 356.608,162.570 350.618,161.284 348.638 L 160.558 347.520 173.632 334.673 C 180.823 327.608,187.021 321.820,187.406 321.813 C 188.209 321.797,188.851 322.385,191.011 325.122 C 193.007 327.650,193.193 327.837,194.293 328.426 C 195.185 328.903,197.469 326.660,259.388 264.505 C 294.682 229.076,323.624 199.915,323.705 199.703 C 323.785 199.490,306.038 181.503,284.267 159.732 C 240.748 116.211,243.841 119.703,246.646 117.266 C 248.060 116.038,260.436 104.156,267.551 97.197 L 271.116 93.711 323.810 146.660 C 353.332 176.325,376.512 199.916,376.522 200.308 M151.417 226.589 C 99.226 278.826,71.163 307.182,71.163 307.681 C 71.163 308.103,71.387 308.681,71.660 308.965 C 71.934 309.249,72.565 310.010,73.063 310.655 C 73.562 311.300,74.790 312.727,75.792 313.826 C 76.795 314.925,78.319 316.663,79.179 317.687 C 82.534 321.684,83.859 323.211,87.104 326.824 C 88.000 327.822,88.479 328.072,89.107 327.873 C 89.561 327.729,103.700 313.943,120.528 297.238 C 137.356 280.532,158.761 259.298,168.095 250.050 C 218.234 200.375,252.201 166.515,252.193 166.216 C 252.180 165.734,244.340 157.107,242.058 155.064 C 241.319 154.403,238.985 152.146,236.872 150.049 C 234.758 147.952,232.724 146.243,232.350 146.250 C 231.977 146.257,195.557 182.410,151.417 226.589 M240.549 154.350 C 247.718 161.546,251.417 165.604,251.417 166.273 C 251.417 166.685,229.167 188.897,184.534 233.038 C 165.944 251.425,137.057 280.100,120.341 296.761 C 103.626 313.421,89.611 327.178,89.198 327.332 C 88.470 327.601,85.948 325.149,82.502 320.823 C 81.965 320.148,80.526 318.464,79.305 317.081 C 73.332 310.310,71.554 308.151,71.554 307.665 C 71.554 306.774,231.565 147.019,232.458 147.019 C 232.959 147.019,235.898 149.682,240.549 154.350 M165.729 283.510 C 132.535 316.860,105.327 344.441,105.266 344.800 C 105.202 345.181,105.917 346.110,106.972 347.019 C 107.970 347.879,110.154 349.902,111.823 351.515 C 124.033 363.310,123.711 363.042,124.901 362.376 C 125.306 362.149,131.574 356.050,138.830 348.822 C 153.629 334.078,229.674 258.494,239.283 248.977 C 242.701 245.592,245.613 242.458,245.754 242.014 C 246.060 241.051,228.056 222.874,226.797 222.874 C 226.366 222.874,202.069 246.998,165.729 283.510 M229.222 225.122 C 230.204 226.144,234.266 230.212,238.250 234.162 C 243.493 239.362,245.426 241.521,245.252 241.982 C 245.120 242.333,232.949 254.581,218.205 269.200 C 203.461 283.820,182.919 304.230,172.557 314.557 C 126.977 359.980,124.736 362.158,123.826 361.928 C 123.356 361.809,121.121 359.902,118.858 357.689 C 116.596 355.476,112.769 351.797,110.354 349.512 C 107.939 347.228,105.963 345.118,105.963 344.824 C 105.963 344.530,118.147 332.059,133.039 317.110 C 205.511 244.362,226.205 223.651,226.576 223.495 C 227.315 223.186,227.427 223.255,229.222 225.122 " stroke="none" fill="#a6c0d0" fill-rule="evenodd"></path>
	</g>
</svg>
