<?xml version="1.0" encoding="utf-8"?>
<!-- Generator: Adobe Illustrator 24.0.0, SVG Export Plug-In . SVG Version: 6.00 Build 0)  -->
<svg version="1.1" id="Layer_1" xmlns="http://www.w3.org/2000/svg" xmlns:xlink="http://www.w3.org/1999/xlink" x="0px" y="0px"
	 viewBox="0 0 150 58" style="enable-background:new 0 0 150 58;" xml:space="preserve">
<style type="text/css">
	.st0{fill:#3E7CAC;stroke:#3E7CAC;stroke-width:0.25;stroke-miterlimit:10;}
	.st1{fill:#3E7CAC;stroke:#3E7CAC;stroke-width:0.25;}
</style>
<g>
	<path class="st0" d="M18.1,41.6h-3V22.1l3-2.4V41.6z"/>
	<path class="st1" d="M47,25.9h2.4L47,20.8h3.1l8.3,17.7h-3.1l-1.5-2.8h-8.2l-1.1,2.4h-3.1L47,25.9z M52.5,32.9l-2.8-6.1l-2.8,6.1
		H52.5z"/>
	<path class="st1" d="M60.8,20.7h1l10.1,10.9V20.7h3V38h-1l-10.2-11v11.3h-3V26.5h2.5l-2.5-2.6V20.7z"/>
	<path class="st1" d="M97.9,25.9h2.4l-4.8-9.4h3.1l10.4,21.5h-3.1l-1.1-2.4h-8.2l-1.1,2.4h-3.1L97.9,25.9z M103.4,32.9l-2.8-6.1
		l-2.8,6.1H103.4z"/>
	<path class="st1" d="M123.9,36.7c-0.7,0.6-1.5,1-2.2,1.3c-0.8,0.3-1.8,0.5-2.9,0.5c-1.3,0-2.4-0.2-3.4-0.6c-1-0.4-1.9-0.9-2.6-1.5
		c-0.7-0.6-1.3-1.4-1.8-2.2c-0.5-0.8-0.8-1.7-1-2.6c-0.2-0.9-0.3-1.9-0.2-2.8c0.1-0.9,0.3-1.9,0.6-2.8h3.5c-0.4,0.6-0.6,1.2-0.8,1.9
		c-0.1,0.7-0.2,1.4-0.1,2.1c0.1,0.7,0.2,1.4,0.5,2.1c0.3,0.7,0.7,1.3,1.1,1.8c0.5,0.5,1.1,0.9,1.8,1.2c0.7,0.3,1.5,0.5,2.4,0.5
		c0.5,0,0.9,0,1.2-0.1c0.4-0.1,0.7-0.2,0.9-0.3c0.3-0.1,0.5-0.2,0.7-0.4c0.2-0.1,0.4-0.3,0.5-0.4L123.9,36.7z M111.9,23.4
		c0.7-0.9,1.7-1.7,2.8-2.2c1.2-0.6,2.5-0.8,4-0.8c0.9,0,1.8,0.1,2.7,0.5c0.9,0.3,1.7,0.7,2.5,1.3l-1.7,2.4c-0.4-0.3-0.8-0.6-1.4-0.9
		s-1.3-0.4-2-0.4c-1.1,0-2,0.2-2.8,0.7c-0.8,0.4-1.4,1-1.9,1.7L111.9,23.4z"/>
	<path class="st1" d="M101.9,19.3l-1.4-2.8h44.8l-1.8,2.8H101.9z M135,38.1h-3V21.7l3-2.4V38.1z"/>
</g>
<g>
	<path class="st0" d="M31.1,20.7c1.2,0,2.1,0.2,2.9,0.6c0.8,0.4,1.4,0.9,1.9,1.5c0.5,0.6,0.8,1.3,0.9,2.1c0.1,0.8,0.1,1.5-0.1,2.3
		c-0.2,0.7-0.6,1.4-1.1,2.1c-0.5,0.6-1.2,1.1-2.1,1.4l5.1,7.4h-3.5l-4.7-7h-1.9v7h-3V25.9l2.9-2.4h-2.9v-2.8L31.1,20.7L31.1,20.7z
		 M28.6,23.5v4.9h2.5c0.6,0,1.2-0.1,1.6-0.4s0.7-0.6,0.9-0.9c0.2-0.4,0.3-0.7,0.3-1.2c0-0.4-0.1-0.8-0.3-1.2
		c-0.2-0.4-0.5-0.7-0.9-0.9c-0.4-0.2-0.9-0.4-1.6-0.4H28.6z"/>
</g>
<g>
	<path class="st0" d="M19.4,41.8V39h57.4l-1.1,2.8H19.4z"/>
</g>
<polygon class="st0" points="9.5,16.9 91.9,16.9 90.5,19.6 9.5,19.6 9.5,21.5 2.5,18.4 9.5,14.9 "/>
<polyline class="st0" points="92,16.9 90.4,19.6 82,39.2 140.1,39.1 140.1,37.1 147.1,40.6 140.1,43.7 140.1,41.9 77,41.9 
	85.6,22.1 90.4,19.6 "/>
</svg>
